<svg width="1440" height="1024" viewBox="0 0 1440 1024" fill="none" xmlns="http://www.w3.org/2000/svg">
<g clip-path="url(#clip0_1_2)">
<rect width="1440" height="1024" fill="#F5F5F5"/>
<rect x="99" y="186.515" width="169" height="169" transform="rotate(-31.9833 99 186.515)" fill="#A3D4F8"/>
<rect x="99" y="186.515" width="169" height="169" transform="rotate(-31.9833 99 186.515)" fill="#A3D4F8"/>
<rect x="331.776" y="443" width="169" height="169" transform="rotate(40.064 331.776 443)" fill="#A3D4F8"/>
<rect x="776.776" y="240" width="169" height="169" transform="rotate(40.064 776.776 240)" fill="#A3D4F8"/>
<circle cx="154.5" cy="629.5" r="9.5" fill="#D7FBF2"/>
<circle cx="835.5" cy="79.5" r="9.5" fill="#D7FBF2"/>
<ellipse cx="1003.4" cy="609.426" rx="29.5" ry="29" transform="rotate(24.3914 1003.4 609.426)" fill="#D7FBF2"/>
<circle cx="154.5" cy="664.5" r="9.5" fill="#D7FBF2"/>
<circle cx="835.5" cy="114.5" r="9.5" fill="#D7FBF2"/>
<ellipse cx="958.795" cy="707.786" rx="29.5" ry="29" transform="rotate(24.3914 958.795 707.786)" fill="#D7FBF2"/>
<circle cx="189.5" cy="664.5" r="9.5" fill="#D7FBF2"/>
<circle cx="870.5" cy="114.5" r="9.5" fill="#D7FBF2"/>
<circle cx="1056.7" cy="752.18" r="29" transform="rotate(24.3914 1056.7 752.18)" fill="#D7FBF2"/>
<circle cx="224.5" cy="664.5" r="9.5" fill="#D7FBF2"/>
<circle cx="905.5" cy="114.5" r="9.5" fill="#D7FBF2"/>
<circle cx="1155.06" cy="796.781" r="29" transform="rotate(24.3914 1155.06 796.781)" fill="#D7FBF2"/>
<circle cx="224.5" cy="629.5" r="9.5" fill="#D7FBF2"/>
<circle cx="905.5" cy="79.5" r="9.5" fill="#D7FBF2"/>
<circle cx="1199.66" cy="698.42" r="29" transform="rotate(24.3914 1199.66 698.42)" fill="#D7FBF2"/>
<circle cx="189.5" cy="629.5" r="9.5" fill="#D7FBF2"/>
<circle cx="870.5" cy="79.5" r="9.5" fill="#D7FBF2"/>
<circle cx="1101.3" cy="653.82" r="29" transform="rotate(24.3914 1101.3 653.82)" fill="#D7FBF2"/>
<circle cx="1216" cy="151" r="89" fill="#FEC9C9"/>
<circle cx="720" cy="606" r="89" fill="#FEC9C9"/>
<rect x="1216" y="552" width="226" height="78" fill="#A3D4F8"/>
<rect x="762.28" y="759" width="226" height="78" transform="rotate(67.9217 762.28 759)" fill="#A3D4F8"/>
<path d="M32.8067 855.97L188.52 893.682L78.0032 1009.68L32.8067 855.97Z" fill="#FEC9C9"/>
<path d="M539.807 83.9698L695.52 121.682L585.003 237.677L539.807 83.9698Z" fill="#FEC9C9"/>
<path d="M1097.35 857.694L1216.13 907.777L1211.71 1041.49L1090.21 1074.05L1019.54 960.454L1097.35 857.694Z" fill="#D7FBF2"/>
<path d="M1097.35 267.694L1216.13 317.777L1211.71 451.49L1090.21 484.046L1019.54 370.454L1097.35 267.694Z" fill="#D7FBF2"/>
<path d="M372.354 809.694L491.127 859.777L486.714 993.49L365.214 1026.05L294.536 912.454L372.354 809.694Z" fill="#D7FBF2"/>
</g>
<defs>
<clipPath id="clip0_1_2">
<rect width="1440" height="1024" fill="white"/>
</clipPath>
</defs>
</svg>
